HIERARCHY
ROOT SpineBase
{
  OFFSET 0.000000 0.000000 0.000000
  CHANNELS 6 Xposition Yposition Zposition Zrotation Xrotation Yrotation
  JOINT SpineMid
  {
    OFFSET -0.000000 30.950603 0.000000
    CHANNELS 3 Zrotation Xrotation Yrotation
    JOINT SpineShoulder
    {
      OFFSET -0.175573 23.013508 -0.883239
      CHANNELS 3 Zrotation Xrotation Yrotation
      JOINT Neck
      {
        OFFSET -0.094083 7.623138 -0.608265
        CHANNELS 3 Zrotation Xrotation Yrotation
        JOINT Head
        {
          OFFSET -4.276551 12.958727 1.105344
          CHANNELS 3 Zrotation Xrotation Yrotation
          End Site
          {
            OFFSET 0 0 0
          }
        }
      }
      JOINT ShoulderLeft
      {
        OFFSET -15.721763 -3.642652 9.065242
        CHANNELS 3 Zrotation Xrotation Yrotation
        JOINT ElbowLeft
        {
          OFFSET -2.772531 -22.549754 2.739993
          CHANNELS 3 Zrotation Xrotation Yrotation
          JOINT WristLeft
          {
            OFFSET 2.738127 -5.824145 -25.433481
            CHANNELS 3 Zrotation Xrotation Yrotation
            JOINT HandLeft
            {
              OFFSET -0.067768 -1.491736 -3.745615
              CHANNELS 3 Zrotation Xrotation Yrotation
              JOINT HandTipLeft
              {
                OFFSET 1.152063 -0.142419 -7.207023
                CHANNELS 3 Zrotation Xrotation Yrotation
                End Site
                {
                  OFFSET 0 0 0
                }
              }
              JOINT ThumbLeft
              {
                OFFSET 4.091318 0.367240 -2.646419
                CHANNELS 3 Zrotation Xrotation Yrotation
                End Site
                {
                  OFFSET 0 0 0
                }
              }
            }
          }
        }
      }
      JOINT ShoulderRight
      {
        OFFSET 14.356696 -3.419762 -7.912085
        CHANNELS 3 Zrotation Xrotation Yrotation
        JOINT ElbowRight
        {
          OFFSET 7.377083 -21.090202 -3.902972
          CHANNELS 3 Zrotation Xrotation Yrotation
          JOINT WristRight
          {
            OFFSET -16.862897 -10.500589 -12.838001
            CHANNELS 3 Zrotation Xrotation Yrotation
            JOINT HandRight
            {
              OFFSET -5.838487 1.473410 -3.165476
              CHANNELS 3 Zrotation Xrotation Yrotation
              JOINT HandTipRight
              {
                OFFSET -3.589669 -0.313817 -2.065952
                CHANNELS 3 Zrotation Xrotation Yrotation
                End Site
                {
                  OFFSET 0 0 0
                }
              }
              JOINT ThumbRight
              {
                OFFSET 0.398908 -1.451421 -3.389837
                CHANNELS 3 Zrotation Xrotation Yrotation
                End Site
                {
                  OFFSET 0 0 0
                }
              }
            }
          }
        }
      }
    }
  }
  JOINT HipLeft
  {
    OFFSET -6.286511 0.172755 -0.618242
    CHANNELS 3 Zrotation Xrotation Yrotation
    JOINT KneeLeft
    {
      OFFSET 3.562970 -38.757894 -0.574239
      CHANNELS 3 Zrotation Xrotation Yrotation
      JOINT AnkleLeft
      {
        OFFSET 8.767673 -36.160009 2.198729
        CHANNELS 3 Zrotation Xrotation Yrotation
        JOINT FootLeft
        {
          OFFSET -1.257381 -5.431968 -6.605389
          CHANNELS 3 Zrotation Xrotation Yrotation
          End Site
          {
            OFFSET 0 0 0
          }
        }
      }
    }
  }
  JOINT HipRight
  {
    OFFSET 6.626545 1.781198 -6.396483
    CHANNELS 3 Zrotation Xrotation Yrotation
    JOINT KneeRight
    {
      OFFSET 6.919867 -33.970574 -6.451590
      CHANNELS 3 Zrotation Xrotation Yrotation
      JOINT AnkleRight
      {
        OFFSET 12.916976 -37.879631 15.909120
        CHANNELS 3 Zrotation Xrotation Yrotation
        JOINT FootRight
        {
          OFFSET -3.795086 -3.872248 -8.500212
          CHANNELS 3 Zrotation Xrotation Yrotation
          End Site
          {
            OFFSET 0 0 0
          }
        }
      }
    }
  }
}
MOTION
Frames: 12
Frame Time: 0.033333
-22.345796 81.649696 338.826099 1.002651 4.851162 25.814998 -0.174279 0.607056 -25.815582 -0.305272 -0.081546 0.009851 10.715890 -10.110338 -1.132455 0.000000 0.000000 0.000000 1.309874 5.988790 -1.320118 -4.288401 -8.654616 13.107889 3.275582 13.209675 -8.428546 0.178372 -12.169033 33.806632 0.000000 0.000000 0.000000 0.000000 0.000000 0.000000 -5.626627 2.224361 3.378668 -2.509561 -7.750208 4.585371 14.695048 2.801739 18.845740 -3.945325 -7.598082 -12.461337 0.000000 0.000000 0.000000 0.000000 0.000000 0.000000 -3.020710 -3.927632 -25.961071 5.120230 0.005131 0.309208 -9.048021 -2.147055 4.967054 0.000000 0.000000 0.000000 2.318600 6.212811 -23.840271 -10.164927 5.892578 -1.107324 55.118428 -59.130564 65.899319 0.000000 0.000000 0.000000
-22.468138 81.574704 338.919552 0.973956 4.811310 25.859875 -0.159934 0.601926 -25.858938 -0.300757 -0.069318 0.009882 10.570683 -10.243192 -1.180407 0.000000 0.000000 0.000000 0.558065 4.886773 -1.255190 -3.096210 -8.290389 11.462700 2.487865 16.295076 -5.941609 0.593096 -17.137608 33.754437 0.000000 0.000000 0.000000 0.000000 0.000000 0.000000 -5.487597 2.134910 3.315081 -2.831985 -7.346559 4.458973 14.056425 2.159334 16.448418 -3.016160 -7.316890 -7.396060 0.000000 0.000000 0.000000 0.000000 0.000000 0.000000 -2.980424 -3.902035 -26.002344 5.067341 0.123606 0.329312 -9.439013 -1.954002 5.383077 0.000000 0.000000 0.000000 2.551157 6.233698 -23.903498 -10.032814 6.356908 -0.718033 68.461613 -60.055027 85.551844 0.000000 0.000000 0.000000
-22.592649 81.508812 338.999130 0.984236 4.784361 25.949159 -0.163008 0.591868 -25.948095 -0.309112 -0.066986 0.009239 10.360437 -10.386399 -1.239128 0.000000 0.000000 0.000000 0.072548 4.391490 -1.246578 -2.035854 -7.604827 9.241167 -0.775045 17.718175 0.387298 1.517363 -20.747081 32.894437 0.000000 0.000000 0.000000 0.000000 0.000000 0.000000 -5.171438 1.866068 3.145478 -3.616579 -6.400635 4.252427 14.849577 0.301429 13.098036 -1.894895 -6.782689 -0.238011 0.000000 0.000000 0.000000 0.000000 0.000000 0.000000 -2.983878 -3.868667 -26.091075 5.124724 -0.128594 0.283300 -7.778160 -1.990597 3.466085 0.000000 0.000000 0.000000 2.725064 6.238708 -24.016519 -10.227633 6.173337 -0.806377 65.795936 -61.475743 70.031692 0.000000 0.000000 0.000000
-22.682629 81.458799 339.049616 1.068430 4.787089 26.080567 -0.157138 0.569209 -26.079034 -0.319669 -0.071451 0.011978 10.116552 -10.630207 -1.323066 0.000000 0.000000 0.000000 -0.243575 4.132577 -1.251180 -1.343975 -7.084146 7.468484 -2.853146 18.335918 4.203726 1.861066 -23.067290 30.688071 0.000000 0.000000 0.000000 0.000000 0.000000 0.000000 -4.612706 1.345051 2.820410 -4.192702 -5.212573 3.717926 16.148203 -1.559126 11.496301 -2.108892 -5.536682 1.742562 0.000000 0.000000 0.000000 0.000000 0.000000 0.000000 -3.069650 -3.827059 -26.227809 5.191821 -0.233848 0.266842 -7.052046 -1.838889 2.520486 0.000000 0.000000 0.000000 2.741931 6.232700 -24.172597 -10.231076 6.257497 -0.716965 89.765721 -62.133931 88.564021 0.000000 0.000000 0.000000
-22.712443 81.438716 339.058946 1.225905 4.824157 26.201139 -0.138632 0.535012 -26.198577 -0.329480 -0.086033 0.018594 9.917131 -10.842700 -1.395570 0.000000 0.000000 0.000000 -0.064548 4.413384 -1.263635 -1.179203 -7.137365 5.464227 -6.942023 17.925106 11.627836 2.535133 -25.737328 24.991200 0.000000 0.000000 0.000000 0.000000 0.000000 0.000000 -3.884807 0.639428 2.386537 -4.507412 -4.199502 3.250925 17.815962 -2.987946 11.441428 -2.620251 -4.650795 3.088487 0.000000 0.000000 0.000000 0.000000 0.000000 0.000000 -3.235605 -3.783896 -26.359690 5.225065 -0.239470 0.267799 -6.820815 -1.543846 2.127465 0.000000 0.000000 0.000000 2.558304 6.210960 -24.315258 -10.063353 6.565419 -0.501067 61.123367 -62.948000 52.126671 0.000000 0.000000 0.000000
-22.778917 81.408547 339.083003 1.354815 4.830830 26.358728 -0.104207 0.511634 -26.354091 -0.329593 -0.088554 0.025719 9.764149 -11.070996 -1.469208 0.000000 0.000000 0.000000 -0.127207 4.197972 -1.242670 -0.699829 -6.290583 3.312932 -10.355680 14.248991 18.232494 3.151314 -25.532433 20.052447 0.000000 0.000000 0.000000 0.000000 0.000000 0.000000 -2.964019 -0.223353 1.882079 -4.765536 -3.190773 2.833359 20.210163 -4.324986 12.405884 -4.387184 -3.216630 1.953227 0.000000 0.000000 0.000000 0.000000 0.000000 0.000000 -3.364576 -3.723394 -26.525273 5.319264 -0.163760 0.288301 -6.775063 -1.302963 1.851313 0.000000 0.000000 0.000000 2.458433 6.195662 -24.499188 -10.116564 6.485044 -0.552686 29.499699 -49.087520 13.745435 0.000000 0.000000 0.000000
-22.843969 81.384173 339.104359 1.472472 4.823520 26.464536 -0.076547 0.487941 -26.458016 -0.328540 -0.090479 0.032259 9.648488 -11.264916 -1.537971 0.000000 0.000000 0.000000 -0.039402 4.119783 -1.217622 -0.991120 -6.809070 3.247137 -11.405160 14.446481 20.498098 3.565584 -25.218825 20.646782 0.000000 0.000000 0.000000 0.000000 0.000000 0.000000 -2.116971 -1.021535 1.428354 -4.312660 -2.392147 1.895657 21.518331 -4.372661 15.303782 -6.554595 -2.211647 -3.804817 0.000000 0.000000 0.000000 0.000000 0.000000 0.000000 -3.473551 -3.657901 -26.637509 5.449355 -0.073968 0.313555 -7.026470 -1.484027 1.984762 0.000000 0.000000 0.000000 2.377461 6.214644 -24.626158 -10.140401 6.384604 -0.598300 20.627559 -37.225472 2.658972 0.000000 0.000000 0.000000
-22.895593 81.360703 339.119553 1.592164 4.810145 26.453980 -0.061740 0.464901 -26.446301 -0.331490 -0.096097 0.037885 9.529706 -11.428649 -1.604650 0.000000 0.000000 0.000000 0.093937 3.997497 -1.178379 -1.086414 -6.943549 2.361214 -11.021233 15.521559 19.697764 2.754554 -28.230039 20.128590 0.000000 0.000000 0.000000 0.000000 0.000000 0.000000 -1.569623 -1.688392 1.072995 -4.152252 -1.973734 1.813929 22.701453 -3.701774 18.270623 -8.940644 -1.149564 -5.609706 0.000000 0.000000 0.000000 0.000000 0.000000 0.000000 -3.574083 -3.592939 -26.632993 5.603907 0.059405 0.348392 -7.408261 -1.618423 2.208929 0.000000 0.000000 0.000000 2.286139 6.261144 -24.633216 -10.163343 6.227543 -0.671813 17.557194 -31.490178 0.007072 0.000000 0.000000 0.000000
-22.928406 81.344448 339.127678 1.697839 4.797728 26.340070 -0.062147 0.452261 -26.332458 -0.342076 -0.103217 0.041221 9.479115 -11.550424 -1.653935 0.000000 0.000000 0.000000 0.273059 3.754628 -1.116441 -1.074643 -6.265963 1.232449 -9.211280 14.620191 16.334721 2.297336 -27.242228 19.618568 0.000000 0.000000 0.000000 0.000000 0.000000 0.000000 -1.308583 -2.087508 0.864890 -4.232822 -2.013343 2.438310 22.645561 -2.804803 19.434766 -9.783501 -1.005931 -7.907173 0.000000 0.000000 0.000000 0.000000 0.000000 0.000000 -3.656121 -3.541739 -26.524278 5.742502 0.244380 0.391752 -7.954046 -2.073488 2.697035 0.000000 0.000000 0.000000 2.179402 6.304911 -24.533031 -10.159032 6.095580 -0.728749 16.708265 -31.610455 2.542802 0.000000 0.000000 0.000000
-22.948575 81.324586 339.129990 1.762631 4.781786 26.080977 -0.084919 0.444978 -26.074690 -0.351382 -0.108183 0.042069 9.531468 -11.668925 -1.694591 0.000000 0.000000 0.000000 0.429305 3.547909 -1.061401 -0.732445 -4.857659 -0.461096 -7.285392 11.415096 12.920699 1.779555 -24.345950 17.718128 0.000000 0.000000 0.000000 0.000000 0.000000 0.000000 -1.363676 -2.118046 0.839371 -4.451155 -2.543826 3.599398 21.186185 -2.069354 17.961574 -8.933628 -1.588667 -6.941002 0.000000 0.000000 0.000000 0.000000 0.000000 0.000000 -3.691228 -3.515263 -26.267887 5.884685 0.326131 0.415344 -8.414496 -2.680143 3.172029 0.000000 0.000000 0.000000 2.103887 6.356511 -24.280077 -10.146095 6.091616 -0.721572 24.059039 -45.300909 18.811148 0.000000 0.000000 0.000000
-22.942608 81.312624 339.123918 1.820874 4.779841 25.720485 -0.084749 0.431541 -25.713821 -0.346542 -0.113062 0.045477 9.423963 -11.788780 -1.740096 0.000000 0.000000 0.000000 0.275968 3.103255 -1.017109 -0.200440 -3.223160 -1.704785 -5.526684 7.994701 9.863266 0.682051 -23.021465 10.982036 0.000000 0.000000 0.000000 0.000000 0.000000 0.000000 -1.627052 -2.124129 0.846548 -5.077914 -2.876266 4.966419 20.315187 -2.555202 13.956141 -7.864244 -1.532125 -2.563374 0.000000 0.000000 0.000000 0.000000 0.000000 0.000000 -3.720693 -3.511204 -25.910569 5.949417 0.269921 0.408415 -7.903321 -3.225351 2.636386 0.000000 0.000000 0.000000 1.981618 6.393160 -23.920674 -10.006481 6.380403 -0.534995 25.410122 -48.596223 29.255803 0.000000 0.000000 0.000000
-22.954966 81.289658 339.125064 1.892322 4.767805 25.410186 -0.111736 0.416640 -25.404837 -0.351341 -0.121171 0.047154 9.085622 -11.877973 -1.803321 0.000000 0.000000 0.000000 -0.069749 2.499383 -0.975797 0.641544 -0.850054 -2.964890 -5.144299 3.674761 9.556021 -0.763227 -23.293119 1.068323 0.000000 0.000000 0.000000 0.000000 0.000000 0.000000 -2.041046 -1.979130 0.922875 -5.939416 -3.026956 6.186262 20.134230 -3.716340 9.318647 -6.424847 -1.518952 4.654996 0.000000 0.000000 0.000000 0.000000 0.000000 0.000000 -3.464097 -4.277935 -25.646048 5.302186 1.066128 0.451202 -8.138179 -3.116024 2.819757 0.000000 0.000000 0.000000 1.882390 6.420187 -23.620564 -9.960026 6.578119 -0.419579 27.129349 -50.229526 32.024007 0.000000 0.000000 0.000000
